<?xml version="1.0" encoding="utf-8"?>

<!-- License Agreement at http://iconmonstr.com/license/ -->

<!DOCTYPE svg PUBLIC "-//W3C//DTD SVG 1.1//EN" "http://www.w3.org/Graphics/SVG/1.1/DTD/svg11.dtd">
<svg version="1.1" xmlns="http://www.w3.org/2000/svg" xmlns:xlink="http://www.w3.org/1999/xlink" x="0px" y="0px"
	 width="20px" height="20px" viewBox="0 0 512 512" enable-background="new 0 0 512 512" xml:space="preserve" fill="#757575">
<path id="cursor-text-3-icon" d="M283.977,101.757V241h40.198v30h-40.198v139.243c0,9.271,7.516,16.786,16.786,16.786h38.412V462
	h-48.316c-13.533,0-26.34-6.127-34.832-16.665l-0.068-0.085c-8.49,10.589-21.328,16.75-34.9,16.75h-48.232v-34.971h38.412
	c9.271,0,16.786-7.516,16.786-16.786V271h-40.198v-30h40.198V101.757c0-9.271-7.516-16.786-16.786-16.786h-38.412V50h48.316
	c13.533,0,26.34,6.127,34.832,16.665l0.068,0.085c8.49-10.589,21.328-16.75,34.9-16.75h48.232v34.971h-38.412
	C291.492,84.971,283.977,92.486,283.977,101.757z M85,205.417H50v101h35V205.417z M85,85h42.825v-0.029V50H50v121.417h35V85z
	 M127.825,427.029V427H85v-86.583H50V462h77.825V427.029z M384.175,50v34.971V85H427v86.417h35V50H384.175z M427,427h-42.825v0.029
	V462H462V340.417h-35V427z M427,306.417h35v-101h-35V306.417z"/>
</svg>
